<svg width="16" height="12" viewBox="0 0 16 12" fill="none" xmlns="http://www.w3.org/2000/svg">
<path d="M8.19935 6.14671C8.55507 5.8388 8.84038 5.45796 9.03593 5.03006C9.23148 4.60215 9.33269 4.13718 9.33268 3.66671C9.33268 2.78265 8.98149 1.93481 8.35637 1.30968C7.73125 0.684564 6.8834 0.333374 5.99935 0.333374C5.11529 0.333374 4.26745 0.684564 3.64233 1.30968C3.01721 1.93481 2.66602 2.78265 2.66602 3.66671C2.66601 4.13718 2.76722 4.60215 2.96277 5.03006C3.15832 5.45796 3.44363 5.8388 3.79935 6.14671C2.86611 6.5693 2.07433 7.25173 1.51867 8.1124C0.963012 8.97308 0.666997 9.97558 0.666016 11C0.666016 11.1769 0.736253 11.3464 0.861278 11.4714C0.986302 11.5965 1.15587 11.6667 1.33268 11.6667C1.50949 11.6667 1.67906 11.5965 1.80409 11.4714C1.92911 11.3464 1.99935 11.1769 1.99935 11C1.99935 9.93917 2.42078 8.92176 3.17092 8.17161C3.92107 7.42147 4.93848 7.00004 5.99935 7.00004C7.06021 7.00004 8.07763 7.42147 8.82778 8.17161C9.57792 8.92176 9.99935 9.93917 9.99935 11C9.99935 11.1769 10.0696 11.3464 10.1946 11.4714C10.3196 11.5965 10.4892 11.6667 10.666 11.6667C10.8428 11.6667 11.0124 11.5965 11.1374 11.4714C11.2624 11.3464 11.3327 11.1769 11.3327 11C11.3317 9.97558 11.0357 8.97308 10.48 8.1124C9.92437 7.25173 9.13259 6.5693 8.19935 6.14671ZM5.99935 5.66671C5.60379 5.66671 5.21711 5.54941 4.88821 5.32965C4.55931 5.10988 4.30297 4.79753 4.15159 4.43207C4.00021 4.06662 3.96061 3.66449 4.03778 3.27653C4.11495 2.88856 4.30543 2.5322 4.58514 2.25249C4.86484 1.97279 5.22121 1.78231 5.60917 1.70514C5.99713 1.62797 6.39926 1.66757 6.76472 1.81895C7.13017 1.97032 7.44253 2.22667 7.66229 2.55557C7.88205 2.88447 7.99935 3.27114 7.99935 3.66671C7.99935 4.19714 7.78864 4.70585 7.41356 5.08092C7.03849 5.45599 6.52978 5.66671 5.99935 5.66671ZM12.4927 5.88004C12.9193 5.39959 13.198 4.80608 13.2952 4.17093C13.3924 3.53579 13.304 2.88609 13.0405 2.30004C12.7771 1.71399 12.3499 1.21657 11.8103 0.867656C11.2708 0.518741 10.6419 0.333202 9.99935 0.333374C9.82254 0.333374 9.65297 0.403612 9.52794 0.528636C9.40292 0.65366 9.33268 0.82323 9.33268 1.00004C9.33268 1.17685 9.40292 1.34642 9.52794 1.47145C9.65297 1.59647 9.82254 1.66671 9.99935 1.66671C10.5298 1.66671 11.0385 1.87742 11.4136 2.25249C11.7886 2.62757 11.9993 3.13627 11.9993 3.66671C11.9984 4.01687 11.9055 4.36064 11.7301 4.66365C11.5546 4.96667 11.3026 5.21829 10.9993 5.39337C10.9005 5.45039 10.818 5.53182 10.7596 5.62987C10.7012 5.72792 10.669 5.83931 10.666 5.95337C10.6632 6.06655 10.6893 6.17857 10.7418 6.27888C10.7943 6.37919 10.8714 6.46448 10.966 6.52671L11.226 6.70004L11.3127 6.74671C12.1163 7.12785 12.7942 7.7307 13.2667 8.48425C13.7391 9.2378 13.9864 10.1107 13.9793 11C13.9793 11.1769 14.0496 11.3464 14.1746 11.4714C14.2996 11.5965 14.4692 11.6667 14.646 11.6667C14.8228 11.6667 14.9924 11.5965 15.1174 11.4714C15.2424 11.3464 15.3127 11.1769 15.3127 11C15.3181 9.97699 15.0619 8.96954 14.5683 8.07341C14.0748 7.17729 13.3602 6.42225 12.4927 5.88004Z" fill="#0E1426"/>
</svg>
